<svg width="44" height="44" viewBox="0 0 44 44" fill="none" xmlns="http://www.w3.org/2000/svg">
<rect width="44" height="44" fill="#232D57"/>
<g clip-path="url(#clip0_25154_258471)">
<path fill-rule="evenodd" clip-rule="evenodd" d="M15.6285 9.27599C23.4409 6.11796 31.6206 9.47796 30.9688 12.1035C30.9229 12.2963 30.8219 12.4799 30.675 12.6727C33.3465 13.655 34.9898 15.0596 34.7511 16.3907C34.6318 17.0517 34.0534 17.7127 33.1629 18.3645C35.0816 19.3376 36.1649 20.577 35.9813 21.853C35.6141 24.3593 28.8114 26.737 23.3124 28.6648C22.1281 29.078 21.0082 29.4727 20.0259 29.8399C24.0101 30.1429 29.2062 29.6196 34.0534 27.1776C34.439 26.9848 34.7052 26.9022 34.797 27.0491C34.9898 27.3612 33.3924 28.6373 30.9229 29.7481C26.1675 31.878 20.898 32.0891 16.7393 31.3455C16.519 31.5107 16.3904 31.6576 16.3537 31.8045C16.0141 33.1173 23.0278 34.9809 29.9682 32.3278C30.5649 32.0983 30.7118 32.0707 30.8127 32.1809C31.0514 32.4471 29.7845 33.2825 28.3708 33.8517C20.5583 37.0098 12.3786 33.6498 13.0304 31.0242C13.0763 30.8314 13.1773 30.6386 13.3242 30.4458C10.6436 29.4635 9.00946 28.0589 9.24815 26.7278C9.36749 26.0668 9.93667 25.4058 10.8272 24.754C8.91766 23.7809 7.8252 22.5416 8.01798 21.2655C8.3852 18.7593 15.1878 16.3816 20.6868 14.4537C21.8803 14.0406 23.0095 13.6366 24.0009 13.2694C20.0167 12.9665 14.8022 13.4898 9.93667 15.9317C9.5511 16.1245 9.28487 16.2071 9.19307 16.0603C9.00946 15.7481 10.6068 14.4721 13.0763 13.3704C17.8318 11.2406 23.1104 11.0294 27.2691 11.773C27.4803 11.617 27.6088 11.4701 27.6455 11.3232C27.9852 10.0104 20.9714 8.14681 14.0311 10.7999C13.4344 11.0294 13.2875 11.057 13.1865 10.9468C12.9478 10.6806 14.2147 9.84517 15.6285 9.27599ZM28.7104 14.1599C27.3885 14.8852 25.6075 15.6104 23.6888 16.3173C25.6442 16.3724 27.4895 16.6019 29.1236 16.9691C30.0416 16.4917 30.62 16.0511 30.7118 15.6471C30.8219 15.1881 30.06 14.6281 28.7104 14.1599ZM18.0796 18.3094C14.3524 19.6314 11.2219 20.8707 11.0108 21.954C10.9098 22.4773 11.6075 23.0373 12.8468 23.5422C15.3439 22.2386 18.7865 20.9901 21.9904 19.8242C22.0547 19.7966 22.1282 19.7783 22.1924 19.7507C23.5236 19.2642 24.7904 18.8052 25.9196 18.3645C23.5511 18.0707 20.8245 18.0065 18.0796 18.3094ZM14.8757 26.1586C13.9577 26.636 13.3793 27.0766 13.2875 27.4714C13.1773 27.9396 13.9393 28.4996 15.3072 28.9586C16.6291 28.2334 18.4009 27.5173 20.3104 26.8104C18.355 26.7553 16.5098 26.5258 14.8757 26.1586ZM25.9196 24.8183C23.1655 25.1304 20.4298 25.057 18.0704 24.7632C19.218 24.3225 20.4941 23.8543 21.816 23.3678C25.1209 22.1652 28.6186 20.8891 31.1524 19.5763C32.4009 20.0812 33.1078 20.6504 33.0068 21.1737C32.7773 22.257 29.6468 23.4963 25.9196 24.8183Z" fill="url(#paint0_linear_25154_258471)"/>
<path d="M13.0773 13.3698C17.8327 11.24 23.1114 11.0289 27.2701 11.7725C26.6917 12.2131 25.5167 12.718 24.0111 13.278C20.0268 12.9751 14.8124 13.4984 9.94682 15.9403C9.56125 16.1331 9.29502 16.2157 9.20322 16.0689C9.01043 15.7475 10.6078 14.4715 13.0773 13.3698Z" fill="url(#paint1_linear_25154_258471)"/>
<path d="M30.675 12.6719C30.2986 13.1676 29.6101 13.6634 28.7104 14.1591C30.0691 14.6273 30.8219 15.1873 30.7117 15.6555C30.4639 16.7296 26.6724 18.1158 22.1924 19.7499L21.9904 19.8234C16.2344 21.9165 9.69796 24.3034 9.2573 26.7361C9.01861 28.0581 10.6619 29.4627 13.3334 30.4542C13.7189 29.9584 14.4075 29.4627 15.3071 28.967C13.9484 28.4988 13.1865 27.9388 13.2875 27.4797C13.5353 26.4056 17.4186 24.9919 21.8068 23.3853C27.7373 21.2279 34.3104 18.8319 34.7419 16.3991C34.9898 15.0588 33.3465 13.6542 30.675 12.6719Z" fill="url(#paint2_linear_25154_258471)"/>
<path d="M20.0254 29.8407C18.5107 30.4099 17.3264 30.9148 16.748 31.3463C20.9067 32.0899 26.1762 31.8788 30.9317 29.7489C33.4012 28.6473 34.9985 27.362 34.8057 27.0499C34.7139 26.903 34.4477 26.9765 34.0621 27.1784C29.2058 29.6296 24.0097 30.1437 20.0254 29.8407Z" fill="url(#paint3_linear_25154_258471)"/>
<path d="M30.9696 12.1037C31.6214 9.48734 23.4509 6.12734 15.6293 9.2762C14.2155 9.84538 12.9486 10.6808 13.1873 10.947C13.2883 11.0572 13.4352 11.0205 14.0319 10.8001C20.9722 8.14702 27.986 10.0106 27.6463 11.3234C27.4443 12.0946 24.3597 13.1778 20.6968 14.4631C15.1978 16.391 8.38597 18.7687 8.02794 21.2749C7.84433 22.551 8.92761 23.7903 10.8371 24.7634C11.3971 24.3503 12.0765 23.9464 12.8476 23.5516C11.5991 23.0467 10.9106 22.4867 11.0115 21.9634C11.2594 20.6965 15.4824 19.2277 19.9807 17.6578C25.0574 15.8677 30.5014 13.9673 30.9696 12.1037Z" fill="url(#paint4_linear_25154_258471)"/>
<path d="M20.3098 26.8095C18.3543 26.7544 16.5091 26.5249 14.875 26.1577C15.7012 25.7262 16.8029 25.258 18.0698 24.7715C20.4383 25.0653 23.174 25.1387 25.9189 24.8266C25.3039 25.0469 24.6612 25.2672 24.0278 25.4876C22.7793 25.919 21.5216 26.3597 20.3098 26.8095Z" fill="url(#paint5_linear_25154_258471)"/>
<path d="M13.0307 31.0341C12.3789 33.6505 20.5494 37.0105 28.3711 33.8616C29.7848 33.2924 31.0517 32.457 30.813 32.1908C30.712 32.0806 30.5652 32.1174 29.9684 32.3377C23.0281 34.9908 16.0143 33.1272 16.354 31.8144C16.556 31.0433 19.6406 29.96 23.3035 28.6747C28.8025 26.7469 35.6143 24.3692 35.9724 21.8629C36.156 20.5869 35.0635 19.3475 33.154 18.3652C32.594 18.7783 31.9147 19.1823 31.1435 19.577C32.392 20.082 33.0898 20.6511 32.9888 21.1744C32.7409 22.4413 28.518 23.9101 24.0196 25.48C18.9429 27.261 13.4989 29.1613 13.0307 31.0341Z" fill="url(#paint6_linear_25154_258471)"/>
<path d="M23.6893 16.3262C25.6447 16.3813 27.4899 16.6108 29.124 16.978C28.2978 17.4095 27.1961 17.8776 25.9293 18.3642C23.5607 18.0704 20.825 17.997 18.0801 18.3091C18.6952 18.0888 19.3378 17.8685 19.9712 17.6481C21.2106 17.2075 22.4775 16.7668 23.6893 16.3262Z" fill="url(#paint7_linear_25154_258471)"/>
<path fill-rule="evenodd" clip-rule="evenodd" d="M22.1934 19.7504L22.2485 19.9065L22.0465 19.9799C19.1639 21.0265 16.1068 22.1465 13.7016 23.3032C12.499 23.8815 11.4708 24.4691 10.718 25.0566C9.96518 25.6442 9.51535 26.2225 9.41437 26.7642C9.31338 27.3425 9.60715 27.976 10.3049 28.6002C10.975 29.2061 11.994 29.7753 13.2701 30.2527C13.6281 29.8212 14.1973 29.4081 14.9042 28.995C14.3717 28.793 13.9494 28.5727 13.6465 28.3524C13.4629 28.2147 13.316 28.0769 13.2242 27.9209C13.1324 27.7648 13.0865 27.5996 13.1232 27.4343C13.1599 27.2599 13.2701 27.0947 13.4262 26.9386C13.5731 26.7825 13.775 26.6265 14.0137 26.4612C14.4911 26.1491 15.1521 25.8094 15.9232 25.4697C17.4747 24.7812 19.5494 24.0192 21.7435 23.2206H21.7527C24.718 22.1373 27.8393 20.9989 30.2629 19.833C31.4747 19.2455 32.5121 18.6579 33.274 18.0704C34.036 17.4737 34.4858 16.9045 34.5868 16.3629C34.6878 15.7845 34.394 15.1511 33.6963 14.5268C33.0262 13.9209 32.0072 13.3517 30.7311 12.8743C30.3731 13.3058 29.8039 13.7189 29.1062 14.132C29.6294 14.334 30.0609 14.5543 30.3547 14.7747C30.5383 14.9124 30.6852 15.0501 30.777 15.2061C30.8688 15.3622 30.9147 15.5274 30.878 15.6927C30.8412 15.8671 30.7311 16.0324 30.5842 16.1884C30.4373 16.3445 30.2353 16.5006 30.0058 16.6566C29.5376 16.9688 28.8858 17.2992 28.1147 17.6481C26.5724 18.3366 24.4976 19.0894 22.2576 19.9065H22.2485L22.1934 19.7504ZM28.9226 14.233C30.1435 14.6829 30.8137 15.2061 30.7127 15.656C30.4649 16.7301 26.6734 18.1163 22.1934 19.7504L21.9914 19.8238C16.2353 21.9169 9.69896 24.3038 9.2583 26.7366C9.01961 28.0586 10.6629 29.4632 13.3344 30.4547C13.6832 29.9956 14.3075 29.5366 15.1153 29.0776C15.1796 29.0409 15.2439 29.0042 15.3081 28.9674C15.2347 28.9399 15.1704 28.9215 15.097 28.894C13.8668 28.4442 13.1875 27.9209 13.2885 27.4802C13.5363 26.4061 17.4196 24.9924 21.8078 23.3858C27.7383 21.2284 34.3114 18.8324 34.7429 16.3996C34.9816 15.0684 33.3383 13.6638 30.6668 12.6815C30.318 13.1406 29.7029 13.5996 28.895 14.0586C28.8308 14.0953 28.7665 14.132 28.7022 14.1688C28.7849 14.1871 28.8491 14.2147 28.9226 14.233ZM26.8294 11.8645C22.7626 11.2127 17.7042 11.4789 13.1416 13.517C11.9206 14.0678 10.9108 14.6553 10.2406 15.1419C9.90092 15.3897 9.65305 15.6009 9.50617 15.7753C9.43273 15.8579 9.38682 15.9222 9.36846 15.9681C9.38682 15.9681 9.40518 15.9681 9.43273 15.9589C9.53371 15.9406 9.68059 15.8763 9.87338 15.7845C14.7573 13.3333 19.9809 12.8009 23.9835 13.1038C25.2137 12.6448 26.2052 12.2317 26.8294 11.8645ZM27.0406 11.7268C22.9186 11.0291 17.7501 11.277 13.0773 13.3701C10.6078 14.4717 9.01043 15.757 9.20322 16.0691C9.29502 16.216 9.56125 16.1425 9.94682 15.9406C14.8124 13.4986 20.0176 12.9753 24.0111 13.2783C25.3606 12.7733 26.4531 12.3143 27.0773 11.9104C27.1508 11.8645 27.215 11.8186 27.2701 11.7727C27.1875 11.7543 27.114 11.7451 27.0406 11.7268ZM16.9422 31.2166C16.8688 31.2625 16.8045 31.3084 16.7494 31.3543C16.8229 31.3635 16.9055 31.3819 16.979 31.391C21.1009 32.0796 26.2603 31.8409 30.9331 29.7569C33.4026 28.6553 34.9999 27.3701 34.8071 27.0579C34.7153 26.911 34.4491 26.9845 34.0635 27.1865C29.2071 29.6284 24.0111 30.1517 20.0268 29.8487C18.6681 30.3537 17.5665 30.8127 16.9422 31.2166ZM17.1901 31.2625C21.257 31.9143 26.297 31.6481 30.8596 29.6101C32.0806 29.0592 33.0904 28.4717 33.7606 27.9851C34.1003 27.7373 34.3481 27.5261 34.495 27.3517C34.5685 27.2691 34.6144 27.2048 34.6327 27.1589C34.6144 27.1589 34.596 27.1589 34.5685 27.1681C34.4675 27.1865 34.3206 27.2507 34.1278 27.3425C29.2531 29.7937 24.0478 30.3169 20.0452 30.0232C18.815 30.473 17.8144 30.8953 17.1901 31.2625Z" fill="url(#paint8_linear_25154_258471)"/>
<path fill-rule="evenodd" clip-rule="evenodd" d="M19.9715 17.6487C25.0574 15.8677 30.5014 13.9673 30.9696 12.1037C31.6214 9.48734 23.4509 6.12734 15.6293 9.2762C14.2155 9.84538 12.9486 10.6808 13.1873 10.947C13.2883 11.0572 13.4352 11.0205 14.0319 10.8001C20.9722 8.14702 27.986 10.0106 27.6463 11.3234C27.4443 12.0946 24.3597 13.1778 20.6968 14.4631C15.1978 16.391 8.38597 18.7687 8.02794 21.2749C7.84433 22.551 8.92761 23.7903 10.8371 24.7634C11.3512 24.387 11.9663 24.0198 12.6548 23.6526C12.7191 23.6159 12.7833 23.5883 12.8476 23.5516C12.7833 23.5241 12.7099 23.4965 12.6456 23.469C11.5256 22.9916 10.9106 22.45 11.0115 21.9634C11.2594 20.6873 15.4732 19.2185 19.9715 17.6487ZM12.4529 23.5608C11.9755 23.3496 11.5807 23.1201 11.3053 22.8814C10.9748 22.5969 10.7637 22.2755 10.8371 21.9175C10.8738 21.7155 10.9932 21.5319 11.1493 21.3575C11.3053 21.1831 11.5256 20.9995 11.7827 20.825C12.2968 20.4762 12.9945 20.1182 13.8299 19.7601C15.4824 19.0349 17.6673 18.2729 19.9073 17.4926H19.9165C22.4594 16.6021 25.085 15.6841 27.1322 14.7569C28.1604 14.2887 29.0233 13.8296 29.666 13.3706C30.3178 12.9024 30.7033 12.471 30.8043 12.0578C30.942 11.4978 30.6207 10.8644 29.8404 10.2401C29.0692 9.62505 27.885 9.06505 26.4345 8.67948C23.5243 7.91751 19.5676 7.86243 15.6935 9.42308C14.9958 9.70767 14.3348 10.0473 13.885 10.3595C13.6555 10.5155 13.4902 10.6532 13.3984 10.7542C13.3709 10.791 13.3525 10.8185 13.3433 10.8369C13.3525 10.8369 13.3709 10.8369 13.3984 10.8277C13.5086 10.8093 13.6738 10.745 13.9768 10.6349C17.4745 9.29456 20.9906 9.10177 23.5886 9.40472C24.8922 9.55161 25.9663 9.8362 26.7007 10.1575C27.0679 10.3228 27.3617 10.4972 27.5545 10.69C27.7473 10.8828 27.8666 11.1123 27.8024 11.3601C27.7656 11.4978 27.6738 11.6264 27.5545 11.7457C27.4352 11.865 27.2699 11.9844 27.0771 12.1037C26.6915 12.3424 26.1591 12.5903 25.5348 12.8565C24.2771 13.389 22.5879 13.9765 20.7519 14.6191H20.7427C17.9886 15.5831 14.9224 16.6572 12.4988 17.8047C11.287 18.3739 10.2404 18.9614 9.47843 19.5582C8.70728 20.1549 8.25745 20.7424 8.18401 21.3024C8.10138 21.8808 8.30335 22.4683 8.76237 23.0283C9.2122 23.5791 9.90991 24.1024 10.8096 24.5706C11.287 24.2309 11.847 23.8913 12.4529 23.5608Z" fill="url(#paint9_linear_25154_258471)"/>
<path fill-rule="evenodd" clip-rule="evenodd" d="M24.0288 25.4794C18.9429 27.2604 13.4989 29.1607 13.0307 31.0243C12.3789 33.6407 20.5494 37.0007 28.3711 33.8519C29.7848 33.2827 31.0517 32.4473 30.813 32.181C30.712 32.0709 30.5652 32.1076 29.9684 32.3279C23.0281 34.981 16.0143 33.1174 16.354 31.8046C16.556 31.0335 19.6406 29.9502 23.3035 28.665C28.8025 26.7371 35.6143 24.3594 35.9724 21.8532C36.156 20.5771 35.0635 19.3378 33.154 18.3555C32.6399 18.7319 32.0248 19.0991 31.3363 19.4663C31.272 19.503 31.2078 19.5306 31.1435 19.5673C31.2078 19.5948 31.2812 19.6224 31.3455 19.6499C32.4655 20.1365 33.0898 20.6689 32.9888 21.1646C32.7409 22.4407 28.5271 23.9096 24.0288 25.4794ZM31.5383 19.5581C32.0157 19.7692 32.4104 19.9987 32.6858 20.2374C33.0163 20.522 33.2275 20.8525 33.154 21.2014C33.1173 21.4033 32.998 21.5869 32.8419 21.7614C32.6858 21.9358 32.4655 22.1194 32.2084 22.2938C31.6943 22.6427 30.9966 23.0007 30.1612 23.3587C28.5088 24.084 26.3239 24.846 24.0838 25.6263H24.0747C21.5317 26.5168 18.9061 27.4348 16.8589 28.362C15.8399 28.8394 14.9678 29.2984 14.3252 29.7574C13.6734 30.2256 13.2878 30.6571 13.1868 31.0702C13.0491 31.6302 13.3704 32.2637 14.1507 32.8879C14.9219 33.503 16.1061 34.063 17.5566 34.4486C20.4668 35.2105 24.4235 35.2656 28.2976 33.705C28.9953 33.4204 29.6563 33.0807 30.1061 32.7686C30.3357 32.6125 30.5009 32.4748 30.5927 32.3738C30.6202 32.3371 30.6386 32.3096 30.6478 32.2912C30.6386 32.2912 30.6202 32.2912 30.5927 32.3004C30.4825 32.3187 30.3173 32.383 30.0143 32.4932C26.5166 33.8335 23.0006 34.0263 20.4025 33.7233C19.0989 33.5765 18.0248 33.2919 17.2904 32.9705C16.9232 32.8053 16.6294 32.6309 16.4366 32.4381C16.2438 32.2453 16.1245 32.0158 16.1888 31.7679C16.2255 31.6302 16.3173 31.5017 16.4366 31.3824C16.556 31.263 16.7212 31.1437 16.914 31.0243C17.2996 30.7856 17.832 30.5378 18.4563 30.2715C19.714 29.7391 21.4032 29.1515 23.2393 28.5089H23.2484C26.0025 27.545 29.0688 26.4709 31.4924 25.3233C32.7042 24.7542 33.7507 24.1666 34.5127 23.5699C35.2839 22.9732 35.7245 22.3856 35.8071 21.8256C35.8898 21.2473 35.6878 20.6597 35.2196 20.0905C34.7698 19.5397 34.0629 19.0165 33.1632 18.5483C32.7042 18.8971 32.1442 19.2276 31.5383 19.5581Z" fill="url(#paint10_linear_25154_258471)"/>
</g>
<defs>
<linearGradient id="paint0_linear_25154_258471" x1="21.9987" y1="7.99993" x2="21.9987" y2="35.1314" gradientUnits="userSpaceOnUse">
<stop stop-color="#BBCAFF"/>
<stop offset="1" stop-color="#B1DCF6"/>
</linearGradient>
<linearGradient id="paint1_linear_25154_258471" x1="17.4311" y1="11.6254" x2="24.709" y2="32.414" gradientUnits="userSpaceOnUse">
<stop offset="0.0707273" stop-color="#4D76FE"/>
<stop offset="0.1623" stop-color="#9EB4FF"/>
</linearGradient>
<linearGradient id="paint2_linear_25154_258471" x1="18.4027" y1="11.2846" x2="25.6806" y2="32.0733" gradientUnits="userSpaceOnUse">
<stop offset="0.2792" stop-color="#9DB3FF"/>
<stop offset="0.3815" stop-color="#5078FF"/>
<stop offset="0.6237" stop-color="#328AFA"/>
<stop offset="0.722" stop-color="#67BCFF"/>
</linearGradient>
<linearGradient id="paint3_linear_25154_258471" x1="19.3783" y1="10.9446" x2="26.6562" y2="31.7332" gradientUnits="userSpaceOnUse">
<stop offset="0.5947" stop-color="#61B8FF"/>
<stop offset="0.7973" stop-color="#81CFFF"/>
<stop offset="0.8238" stop-color="#7BCBFE"/>
<stop offset="0.8605" stop-color="#69C0FD"/>
<stop offset="0.9032" stop-color="#4BAEFA"/>
<stop offset="0.95" stop-color="#2396F7"/>
<stop offset="0.951" stop-color="#2295F7"/>
</linearGradient>
<linearGradient id="paint4_linear_25154_258471" x1="16.9558" y1="7.7999" x2="22.4791" y2="27.1652" gradientUnits="userSpaceOnUse">
<stop offset="0.578" stop-color="#4E76FF"/>
<stop offset="0.7497" stop-color="#86B0FF"/>
<stop offset="0.8756" stop-color="#BCD9FF"/>
<stop offset="1" stop-color="#D8E7FF"/>
</linearGradient>
<linearGradient id="paint5_linear_25154_258471" x1="15.473" y1="8.2213" x2="20.9963" y2="27.5866" gradientUnits="userSpaceOnUse">
<stop offset="0.7497" stop-color="#BCD9FE"/>
<stop offset="0.8756" stop-color="#BDD8FF"/>
<stop offset="1" stop-color="#D5E6FF"/>
</linearGradient>
<linearGradient id="paint6_linear_25154_258471" x1="27.0421" y1="35.332" x2="21.5188" y2="15.9667" gradientUnits="userSpaceOnUse">
<stop offset="0.2199" stop-color="#04A7E4"/>
<stop offset="0.5801" stop-color="#487FFE"/>
<stop offset="0.715" stop-color="#95ADFF"/>
</linearGradient>
<linearGradient id="paint7_linear_25154_258471" x1="28.5239" y1="34.9083" x2="23.0006" y2="15.5431" gradientUnits="userSpaceOnUse">
<stop offset="0.6812" stop-color="#94ACFF"/>
<stop offset="0.8661" stop-color="#BECDFF"/>
<stop offset="0.9988" stop-color="#D4DEFF"/>
</linearGradient>
<linearGradient id="paint8_linear_25154_258471" x1="22.0009" y1="11.3805" x2="22.0009" y2="31.7407" gradientUnits="userSpaceOnUse">
<stop offset="0.1653" stop-opacity="0"/>
<stop offset="0.5197" stop-opacity="0.08"/>
<stop offset="0.8013" stop-opacity="0"/>
</linearGradient>
<linearGradient id="paint9_linear_25154_258471" x1="19.613" y1="7.40639" x2="19.3852" y2="26.4313" gradientUnits="userSpaceOnUse">
<stop offset="0.1704" stop-opacity="0"/>
<stop offset="0.4584" stop-opacity="0.1"/>
<stop offset="0.7987" stop-opacity="0"/>
</linearGradient>
<linearGradient id="paint10_linear_25154_258471" x1="24.4962" y1="35.1311" x2="24.4962" y2="16.323" gradientUnits="userSpaceOnUse">
<stop offset="0.1127" stop-opacity="0"/>
<stop offset="0.5" stop-opacity="0.1"/>
<stop offset="0.7184" stop-opacity="0"/>
</linearGradient>
<clipPath id="clip0_25154_258471">
<rect width="28" height="27.1279" fill="white" transform="translate(8 8)"/>
</clipPath>
</defs>
</svg>
