<svg width="482" height="482" viewBox="0 0 482 482" fill="none" xmlns="http://www.w3.org/2000/svg">
<rect width="482" height="482" rx="104.433" fill="white"/>
<mask id="mask0_548_16040" style="mask-type:alpha" maskUnits="userSpaceOnUse" x="76" y="82" width="330" height="318">
<path fill-rule="evenodd" clip-rule="evenodd" d="M173.915 93.1914C257.208 65.3573 348.801 94.2853 339.632 127.108C339.184 128.711 338.371 130.341 337.224 131.996C372.447 142.939 394.306 160.019 390.828 176.703C389.137 184.818 381.435 193.215 369.696 201.72C394.099 213.35 408.408 228.389 405.665 244.567C401.23 270.726 327.536 299.421 265.476 323.586C248.957 330.019 233.262 336.13 219.917 341.787C266.017 343.563 325.429 336.225 381.921 309.762C386.565 307.587 389.718 306.744 390.728 308.515C392.865 312.267 373.828 326.784 344.399 339.001C291.282 361.05 233.591 364.744 186.676 358.463C182.834 361.16 180.425 363.642 179.774 365.882C176.352 377.666 247.821 398.734 330.18 371.276C337.272 368.912 340.11 368.286 340.99 369.795C342.907 373.082 324.855 382.732 308.085 388.336C224.792 416.17 133.199 387.242 142.368 354.419C142.823 352.791 143.655 351.134 144.831 349.452C109.593 338.51 87.723 321.425 91.2011 304.737C92.8884 296.641 100.558 288.265 112.25 279.782C87.8798 268.156 73.5938 253.127 76.3346 236.961C80.7696 210.802 154.464 182.106 216.524 157.941C233.122 151.478 248.888 145.339 262.274 139.659C216.151 137.861 156.666 145.184 100.108 171.679C95.4646 173.854 92.311 174.697 91.3018 172.925C89.1644 169.174 108.201 154.656 137.63 142.44C190.777 120.378 248.504 116.692 295.433 122.988C299.211 120.321 301.581 117.864 302.226 115.646C305.648 103.861 234.179 82.7939 151.82 110.251C144.728 112.616 141.89 113.242 141.01 111.733C139.093 108.446 157.145 98.7957 173.915 93.1914ZM318.444 147.667C302.263 157.649 278.584 168.118 253.011 178.525C275.569 178.8 297.472 181.159 317.324 185.148C332.788 177.363 342.924 170.564 344.35 165.14C345.897 159.256 336.064 152.693 318.444 147.667ZM199.849 199.549C154.416 217.453 115.07 233.985 113.314 246.066C112.402 252.332 120.219 259.538 134.319 266.017C154.6 254.798 179.991 243.556 206.061 232.681C218.875 227.267 231.848 221.945 244.452 216.774C259.048 210.785 273.148 205 285.932 199.512C260.371 196.224 230.755 195.608 199.849 199.549ZM164.574 296.359C149.184 304.116 139.102 310.892 137.679 316.301C136.13 322.193 145.994 328.766 163.662 333.795C179.84 323.833 203.472 313.387 228.989 303.003C206.393 302.727 184.452 300.36 164.574 296.359ZM282.151 281.979C251.191 285.927 221.526 285.302 195.934 281.998C208.761 276.489 222.92 270.681 237.577 264.667L237.577 264.667L237.579 264.666C250.183 259.495 263.156 254.173 275.969 248.759C301.997 237.902 327.347 226.679 347.611 215.478C361.755 221.966 369.599 229.185 368.686 235.462C366.93 247.543 327.584 264.075 282.151 281.979Z" fill="black"/>
</mask>
<g mask="url(#mask0_548_16040)">
<path fill-rule="evenodd" clip-rule="evenodd" d="M173.915 93.1914C257.208 65.3573 348.801 94.2853 339.632 127.108C339.184 128.711 338.371 130.341 337.224 131.996C372.447 142.939 394.306 160.019 390.828 176.703C389.137 184.818 381.435 193.215 369.696 201.72C394.099 213.35 408.408 228.389 405.665 244.567C401.23 270.726 327.536 299.421 265.476 323.586C248.957 330.019 233.262 336.13 219.917 341.787C266.017 343.563 325.429 336.225 381.921 309.762C386.565 307.587 389.718 306.744 390.728 308.515C392.865 312.267 373.828 326.784 344.399 339.001C291.282 361.05 233.591 364.744 186.676 358.463C182.834 361.16 180.425 363.642 179.774 365.882C176.352 377.666 247.821 398.734 330.18 371.276C337.272 368.912 340.11 368.286 340.99 369.795C342.907 373.082 324.855 382.732 308.085 388.336C224.792 416.17 133.199 387.242 142.368 354.419C142.823 352.791 143.655 351.134 144.831 349.452C109.593 338.51 87.723 321.425 91.2011 304.737C92.8884 296.641 100.558 288.265 112.25 279.782C87.8798 268.156 73.5938 253.127 76.3346 236.961C80.7696 210.802 154.464 182.106 216.524 157.941C233.122 151.478 248.888 145.339 262.274 139.659C216.151 137.861 156.666 145.184 100.108 171.679C95.4646 173.854 92.311 174.697 91.3018 172.925C89.1644 169.174 108.201 154.656 137.63 142.44C190.777 120.378 248.504 116.692 295.433 122.988C299.211 120.321 301.581 117.864 302.226 115.646C305.648 103.861 234.179 82.7939 151.82 110.251C144.728 112.616 141.89 113.242 141.01 111.733C139.093 108.446 157.145 98.7957 173.915 93.1914ZM318.444 147.667C302.263 157.649 278.584 168.118 253.011 178.525C275.569 178.8 297.472 181.159 317.324 185.148C332.788 177.363 342.924 170.564 344.35 165.14C345.897 159.256 336.064 152.693 318.444 147.667ZM199.849 199.549C154.416 217.453 115.07 233.985 113.314 246.066C112.402 252.332 120.219 259.538 134.319 266.017C154.6 254.798 179.991 243.556 206.061 232.681C218.875 227.267 231.848 221.945 244.452 216.774C259.048 210.785 273.148 205 285.932 199.512C260.371 196.224 230.755 195.608 199.849 199.549ZM164.574 296.359C149.184 304.116 139.102 310.892 137.679 316.301C136.13 322.193 145.994 328.766 163.662 333.795C179.84 323.833 203.472 313.387 228.989 303.003C206.393 302.727 184.452 300.36 164.574 296.359ZM282.151 281.979C251.191 285.927 221.526 285.302 195.934 281.998C208.761 276.489 222.92 270.681 237.577 264.667L237.577 264.667L237.579 264.666C250.183 259.495 263.156 254.173 275.969 248.759C301.997 237.902 327.347 226.679 347.611 215.478C361.755 221.966 369.599 229.185 368.686 235.462C366.93 247.543 327.584 264.075 282.151 281.979Z" fill="url(#paint0_linear_548_16040)"/>
<path d="M142.368 354.431C133.199 387.254 224.792 416.182 308.085 388.348C324.855 382.744 342.907 373.094 340.99 369.807C340.11 368.298 337.272 368.924 330.18 371.288C247.821 398.745 176.352 377.678 179.774 365.893C182.697 355.831 221.114 340.872 265.476 323.598C327.536 299.433 401.23 270.737 405.665 244.579C408.415 228.36 394.027 213.286 369.512 201.644C363.193 206.178 355.711 210.769 347.374 215.382C361.667 221.897 369.604 229.162 368.686 235.474C366.738 248.874 318.541 267.75 267.088 287.902C209.539 310.442 147.915 334.577 142.368 354.431Z" fill="url(#paint1_linear_548_16040)"/>
<path d="M253.011 178.537C275.738 178.814 297.801 181.207 317.77 185.249C308.906 189.787 298.315 194.594 286.623 199.614C260.906 196.247 231.035 195.584 199.85 199.56C204.812 197.605 209.846 195.633 214.912 193.649C227.629 188.668 240.545 183.61 253.011 178.537Z" fill="url(#paint2_linear_548_16040)"/>
<path d="M339.632 127.108C348.801 94.2854 257.208 65.3574 173.915 93.1915C157.145 98.7958 139.093 108.446 141.01 111.733C141.89 113.242 144.728 112.616 151.82 110.251C234.179 82.794 305.648 103.861 302.226 115.646C299.303 125.708 260.886 140.667 216.524 157.941C154.464 182.106 80.7696 210.802 76.3346 236.961C73.5848 253.18 87.9731 268.254 112.488 279.896C118.807 275.362 126.289 270.771 134.626 266.158C120.333 259.642 112.396 252.377 113.314 246.066C115.262 232.665 163.459 213.789 214.912 193.637C272.461 171.098 334.085 146.963 339.632 127.108Z" fill="url(#paint3_linear_548_16040)"/>
<path d="M228.989 303.003C206.262 302.726 184.199 300.333 164.23 296.29C173.094 291.752 183.685 286.945 195.377 281.926C221.094 285.293 250.965 285.956 282.15 281.979C277.188 283.935 272.154 285.906 267.088 287.891C254.371 292.871 241.455 297.93 228.989 303.003Z" fill="url(#paint4_linear_548_16040)"/>
<path d="M137.63 142.44C190.777 120.378 248.503 116.692 295.432 122.988C288.485 127.891 276.776 133.506 262.273 139.659C216.151 137.86 156.666 145.184 100.108 171.679C95.4638 173.854 92.3102 174.696 91.301 172.925C89.1637 169.174 108.2 154.656 137.63 142.44Z" fill="url(#paint5_linear_548_16040)"/>
<path d="M337.223 131.996C333.743 137.02 327.188 142.273 318.443 147.667C336.063 152.693 345.896 159.256 344.349 165.14C341.211 177.076 295.909 195.662 244.451 216.774C231.848 221.944 218.875 227.267 206.062 232.68C149.433 256.302 96.0103 281.659 91.2003 304.737C87.722 321.427 109.595 338.513 144.838 349.454C148.349 344.434 154.922 339.187 163.675 333.799C145.998 328.769 136.129 322.194 137.679 316.301C140.817 304.365 186.119 285.778 237.577 264.667C250.179 259.496 263.151 254.174 275.964 248.761C332.594 225.139 386.017 199.782 390.828 176.703C394.305 160.019 372.447 142.939 337.223 131.996Z" fill="url(#paint6_linear_548_16040)"/>
<path d="M219.942 341.788C205.425 347.942 193.687 353.558 186.69 358.465C233.602 364.743 291.287 361.048 344.398 339.001C373.827 326.784 392.864 312.267 390.727 308.515C389.718 306.744 386.564 307.586 381.92 309.762C325.439 336.22 266.039 343.56 219.942 341.788Z" fill="url(#paint7_linear_548_16040)"/>
<path fill-rule="evenodd" clip-rule="evenodd" d="M191.018 392.235C222.842 400.007 266.187 400.286 307.464 386.492C315.748 383.723 324.343 379.956 330.598 376.496C333.74 374.757 336.204 373.144 337.737 371.821C338.109 371.499 338.401 371.217 338.623 370.975C338.501 370.988 338.365 371.006 338.213 371.029C336.699 371.263 334.374 371.953 330.799 373.145C289.325 386.972 250.575 388.589 222.577 385.25C208.59 383.582 197.21 380.667 189.482 377.369C185.635 375.728 182.571 373.94 180.549 372.073C178.592 370.266 177.148 367.918 177.895 365.348C178.393 363.632 179.575 362.017 181.098 360.506C182.642 358.974 184.673 357.416 187.086 355.833C191.913 352.666 198.479 349.265 206.265 345.673C221.834 338.491 242.573 330.416 264.714 321.795L264.766 321.774C295.821 309.682 329.664 296.502 356.3 283.088C369.62 276.379 381.051 269.655 389.4 263.03C397.83 256.341 402.755 250.035 403.736 244.252C404.986 236.88 402.39 229.627 396.337 222.681C390.435 215.907 381.335 209.544 369.706 203.908C364.38 207.667 358.294 211.451 351.625 215.242C357.269 218.068 361.833 221.046 365.071 224.075C368.887 227.644 371.222 231.639 370.623 235.755C370.304 237.952 369.076 240.053 367.346 242.035C365.602 244.032 363.224 246.048 360.357 248.082C354.623 252.149 346.688 256.451 337.293 260.923C318.506 269.866 293.542 279.643 267.859 289.702L267.802 289.725C239.004 301.003 209.292 312.642 186.084 323.933C174.477 329.581 164.573 335.105 157.252 340.414C149.835 345.793 145.447 350.686 144.254 354.958C142.264 362.078 145.596 369.305 153.904 375.965C162.199 382.614 175.09 388.345 191.018 392.235ZM349.558 216.407C362.471 222.652 369.556 229.491 368.686 235.474C366.738 248.874 318.541 267.75 267.088 287.902C209.539 310.442 147.915 334.577 142.368 354.431C133.199 387.254 224.792 416.182 308.085 388.348C324.855 382.744 342.907 373.094 340.99 369.807C340.11 368.298 337.272 368.924 330.18 371.288C247.821 398.745 176.352 377.678 179.774 365.893C182.697 355.831 221.114 340.872 265.476 323.598C327.536 299.433 401.23 270.737 405.665 244.579C408.415 228.36 394.027 213.286 369.512 201.644C363.731 205.792 356.977 209.987 349.486 214.204C348.788 214.596 348.084 214.989 347.374 215.382C348.12 215.722 348.848 216.063 349.558 216.407ZM339.193 370.194C339.193 370.194 339.193 370.196 339.19 370.202C339.192 370.197 339.193 370.194 339.193 370.194Z" fill="url(#paint8_linear_548_16040)"/>
<path fill-rule="evenodd" clip-rule="evenodd" d="M290.982 89.3049C259.158 81.5321 215.813 81.254 174.536 95.0478C166.252 97.8161 157.657 101.583 151.402 105.044C148.26 106.782 145.796 108.395 144.263 109.719C143.891 110.04 143.599 110.323 143.377 110.564C143.499 110.551 143.635 110.534 143.787 110.51C145.301 110.276 147.626 109.586 151.201 108.395C192.675 94.5677 231.425 92.9503 259.423 96.2895C273.41 97.9577 284.79 100.872 292.518 104.17C296.365 105.812 299.429 107.599 301.451 109.466C303.408 111.273 304.852 113.621 304.105 116.192C303.607 117.907 302.425 119.522 300.902 121.033C299.358 122.565 297.327 124.124 294.914 125.707C290.087 128.874 283.521 132.275 275.735 135.866C260.166 143.048 239.427 151.123 217.286 159.745L217.234 159.765C186.179 171.858 152.336 185.038 125.7 198.452C112.38 205.16 100.949 211.885 92.5996 218.51C84.1704 225.198 79.2449 231.504 78.2643 237.288C77.0145 244.66 79.6102 251.912 85.6627 258.859C91.5649 265.633 100.665 271.996 112.294 277.632C117.62 273.873 123.706 270.088 130.375 266.297C124.731 263.472 120.167 260.493 116.929 257.465C113.113 253.896 110.778 249.9 111.377 245.784C111.696 243.587 112.924 241.486 114.654 239.505C116.398 237.508 118.776 235.491 121.643 233.458C127.377 229.391 135.312 225.088 144.707 220.616C163.494 211.673 188.458 201.896 214.141 191.837L214.198 191.815C242.996 180.536 272.708 168.898 295.916 157.606C307.523 151.959 317.427 146.434 324.748 141.126C332.165 135.747 336.553 130.853 337.746 126.582C339.736 119.462 336.404 112.235 328.096 105.575C319.801 98.9256 306.91 93.1949 290.982 89.3049ZM132.442 265.133C119.529 258.887 112.444 252.048 113.314 246.066C115.262 232.665 163.459 213.789 214.912 193.637C272.461 171.098 334.085 146.963 339.632 127.108C348.801 94.2854 257.208 65.3574 173.915 93.1915C157.145 98.7958 139.093 108.446 141.01 111.733C141.89 113.242 144.728 112.616 151.82 110.251C234.179 82.794 305.648 103.861 302.226 115.646C299.303 125.708 260.886 140.667 216.524 157.941C154.464 182.106 80.7696 210.802 76.3346 236.961C73.5848 253.18 87.9731 268.254 112.488 279.896C118.269 275.748 125.023 271.552 132.514 267.336C133.212 266.943 133.916 266.551 134.626 266.158C133.88 265.818 133.152 265.476 132.442 265.133ZM142.807 111.346C142.807 111.346 142.807 111.343 142.81 111.337C142.808 111.343 142.807 111.346 142.807 111.346Z" fill="url(#paint9_linear_548_16040)"/>
<path fill-rule="evenodd" clip-rule="evenodd" d="M206.82 234.485L206.816 234.486C178.507 246.295 151.096 258.499 130.18 270.606C119.719 276.661 110.955 282.652 104.532 288.51C98.0721 294.402 94.1936 299.968 93.1163 305.137C91.6 312.412 95.5134 320.186 104.738 327.737C113.678 335.054 127.222 341.805 144.095 347.17C147.392 342.949 152.557 338.696 159.023 334.439C152.013 332.192 146.352 329.668 142.376 326.999C140.016 325.415 138.139 323.707 136.957 321.875C135.75 320.006 135.227 317.929 135.786 315.803C136.301 313.844 137.612 311.958 139.356 310.159C141.121 308.338 143.466 306.466 146.272 304.55C151.884 300.717 159.552 296.565 168.656 292.163C186.86 283.359 211.093 273.417 236.782 262.877L236.834 262.856C249.438 257.685 262.401 252.367 275.202 246.958L275.206 246.957L275.21 246.955C303.52 235.146 330.931 222.942 351.848 210.834C362.308 204.779 371.072 198.789 377.496 192.931C383.956 187.039 387.834 181.472 388.911 176.304C390.427 169.031 386.517 161.259 377.298 153.711C368.365 146.397 354.832 139.648 337.972 134.283C334.696 138.509 329.544 142.767 323.087 147.028C330.073 149.272 335.714 151.794 339.676 154.458C342.028 156.04 343.899 157.746 345.077 159.575C346.279 161.441 346.8 163.516 346.242 165.637C345.727 167.597 344.416 169.482 342.672 171.282C340.907 173.103 338.562 174.974 335.756 176.89C330.143 180.723 322.476 184.875 313.372 189.278C295.168 198.081 270.935 208.024 245.246 218.563L245.194 218.584C232.589 223.756 219.626 229.074 206.824 234.483L206.82 234.485ZM320.95 148.409C336.989 153.328 345.821 159.542 344.349 165.14C341.211 177.076 295.909 195.662 244.451 216.774C231.848 221.944 218.875 227.267 206.062 232.68C149.433 256.302 96.0103 281.659 91.2003 304.737C87.722 321.427 109.595 338.513 144.838 349.454C148.046 344.868 153.81 340.092 161.457 335.191C162.18 334.728 162.919 334.264 163.675 333.799C162.819 333.555 161.982 333.308 161.164 333.058C145.07 328.135 136.204 321.909 137.679 316.301C140.817 304.365 186.119 285.778 237.577 264.667C250.179 259.496 263.151 254.174 275.964 248.761C332.594 225.139 386.017 199.782 390.828 176.703C394.305 160.019 372.447 142.939 337.223 131.996C334.043 136.587 328.296 141.369 320.657 146.275C319.936 146.738 319.198 147.202 318.443 147.667C319.297 147.911 320.133 148.158 320.95 148.409Z" fill="url(#paint10_linear_548_16040)"/>
<g style="mix-blend-mode:color">
<rect x="72.1449" y="76.5058" width="334.916" height="330.666" fill="url(#paint11_linear_548_16040)"/>
</g>
</g>
<defs>
<linearGradient id="paint0_linear_548_16040" x1="241" y1="82" x2="241" y2="399.528" gradientUnits="userSpaceOnUse">
<stop stop-color="#7A7A7A"/>
<stop offset="1" stop-color="#7D7D7D"/>
</linearGradient>
<linearGradient id="paint1_linear_548_16040" x1="309.781" y1="399.948" x2="243.629" y2="173.185" gradientUnits="userSpaceOnUse">
<stop offset="0.578043" stop-color="#7C7C7C"/>
<stop offset="0.681206" stop-color="#ACABAB"/>
<stop offset="0.866149" stop-color="#D1D1D1"/>
<stop offset="0.99877" stop-color="#EEEEEE"/>
</linearGradient>
<linearGradient id="paint2_linear_548_16040" x1="309.781" y1="399.948" x2="243.629" y2="173.185" gradientUnits="userSpaceOnUse">
<stop offset="0.578043" stop-color="#7C7C7C"/>
<stop offset="0.681206" stop-color="#ACABAB"/>
<stop offset="0.866149" stop-color="#D1D1D1"/>
<stop offset="0.99877" stop-color="#EEEEEE"/>
</linearGradient>
<linearGradient id="paint3_linear_548_16040" x1="172.62" y1="81.5911" x2="238.556" y2="308.525" gradientUnits="userSpaceOnUse">
<stop offset="0.578043" stop-color="#797979"/>
<stop offset="0.749694" stop-color="#BFBFBF"/>
<stop offset="0.875586" stop-color="#D9D9D9"/>
<stop offset="1" stop-color="#F3F3F3"/>
</linearGradient>
<linearGradient id="paint4_linear_548_16040" x1="172.62" y1="81.5911" x2="238.556" y2="308.525" gradientUnits="userSpaceOnUse">
<stop offset="0.578043" stop-color="#797979"/>
<stop offset="0.749694" stop-color="#BFBFBF"/>
<stop offset="0.875586" stop-color="#D9D9D9"/>
<stop offset="1" stop-color="#F3F3F3"/>
</linearGradient>
<linearGradient id="paint5_linear_548_16040" x1="195.675" y1="120.229" x2="282.486" y2="365.737" gradientUnits="userSpaceOnUse">
<stop offset="0.0707273" stop-color="#797979"/>
<stop offset="0.162345" stop-color="#BABABA"/>
<stop offset="0.279225" stop-color="#B8B8B8"/>
<stop offset="0.381534" stop-color="#7A7A7A"/>
<stop offset="0.621584" stop-color="#7D7D7D"/>
<stop offset="0.722007" stop-color="#B1B1B1"/>
<stop offset="0.857232" stop-color="#BFBFBF"/>
<stop offset="0.950969" stop-color="#7D7D7D"/>
</linearGradient>
<linearGradient id="paint6_linear_548_16040" x1="195.675" y1="120.229" x2="282.486" y2="365.737" gradientUnits="userSpaceOnUse">
<stop offset="0.0707273" stop-color="#797979"/>
<stop offset="0.162345" stop-color="#BABABA"/>
<stop offset="0.279225" stop-color="#B8B8B8"/>
<stop offset="0.381534" stop-color="#7A7A7A"/>
<stop offset="0.621584" stop-color="#7D7D7D"/>
<stop offset="0.722007" stop-color="#B1B1B1"/>
<stop offset="0.857232" stop-color="#BFBFBF"/>
<stop offset="0.950969" stop-color="#7D7D7D"/>
</linearGradient>
<linearGradient id="paint7_linear_548_16040" x1="195.675" y1="120.229" x2="282.486" y2="365.737" gradientUnits="userSpaceOnUse">
<stop offset="0.0707273" stop-color="#797979"/>
<stop offset="0.162345" stop-color="#BABABA"/>
<stop offset="0.279225" stop-color="#B8B8B8"/>
<stop offset="0.381534" stop-color="#7A7A7A"/>
<stop offset="0.621584" stop-color="#7D7D7D"/>
<stop offset="0.722007" stop-color="#B1B1B1"/>
<stop offset="0.857232" stop-color="#BFBFBF"/>
<stop offset="0.950969" stop-color="#7D7D7D"/>
</linearGradient>
<linearGradient id="paint8_linear_548_16040" x1="273.866" y1="399.539" x2="273.866" y2="178.537" gradientUnits="userSpaceOnUse">
<stop offset="0.0788189" stop-opacity="0"/>
<stop offset="0.53125" stop-opacity="0.1"/>
<stop offset="0.819691" stop-opacity="0"/>
</linearGradient>
<linearGradient id="paint9_linear_548_16040" x1="208.134" y1="82.0001" x2="208.134" y2="303.003" gradientUnits="userSpaceOnUse">
<stop offset="0.107012" stop-opacity="0"/>
<stop offset="0.53125" stop-opacity="0.14"/>
<stop offset="0.79323" stop-opacity="0"/>
</linearGradient>
<linearGradient id="paint10_linear_548_16040" x1="241.014" y1="120.232" x2="241.014" y2="361.209" gradientUnits="userSpaceOnUse">
<stop offset="0.11771" stop-opacity="0"/>
<stop offset="0.53125" stop-opacity="0.12"/>
<stop offset="0.897419" stop-opacity="0"/>
</linearGradient>
<linearGradient id="paint11_linear_548_16040" x1="239.603" y1="76.5058" x2="239.603" y2="407.171" gradientUnits="userSpaceOnUse">
<stop stop-color="#003BFF"/>
<stop offset="0.504489" stop-color="#4E76FC"/>
<stop offset="1" stop-color="#00C2FF"/>
</linearGradient>
</defs>
</svg>
