<?xml version="1.0" encoding="utf-8"?>
<!-- Generator: Adobe Illustrator 26.0.2, SVG Export Plug-In . SVG Version: 6.00 Build 0)  -->
<svg version="1.1" id="Слой_1" xmlns="http://www.w3.org/2000/svg" xmlns:xlink="http://www.w3.org/1999/xlink" x="0px" y="0px"
	 viewBox="0 0 305 295.5" style="enable-background:new 0 0 305 295.5;" xml:space="preserve">
<style type="text/css">
	.st0{fill-rule:evenodd;clip-rule:evenodd;fill:url(#SVGID_1_);}
	.st1{fill:url(#SVGID_00000090260733933925705740000004283281743028174989_);}
	.st2{fill:url(#SVGID_00000110454132860938478780000010969803082865963138_);}
	.st3{fill:url(#SVGID_00000142173996144546384420000008586313341589676418_);}
	.st4{fill:url(#SVGID_00000026164532698770886360000001402468208621192606_);}
	.st5{fill:url(#SVGID_00000170984064231754747450000006009138671063320986_);}
	.st6{fill:url(#SVGID_00000013173744020947387170000008700879671789605025_);}
	.st7{fill:url(#SVGID_00000038397963059781937350000001176011970383510156_);}
	.st8{fill-rule:evenodd;clip-rule:evenodd;fill:url(#SVGID_00000017517885269790347280000001686135057822515336_);}
	.st9{fill-rule:evenodd;clip-rule:evenodd;fill:url(#SVGID_00000129192826523328524530000000203221776185294230_);}
	.st10{fill-rule:evenodd;clip-rule:evenodd;fill:url(#SVGID_00000048484649403293982600000017998197379354607504_);}
</style>
<g>
	
		<linearGradient id="SVGID_1_" gradientUnits="userSpaceOnUse" x1="152.4899" y1="298.0533" x2="152.4899" y2="2.5141" gradientTransform="matrix(1 0 0 -1 0 298.0534)">
		<stop  offset="0" style="stop-color:#BBCAFF"/>
		<stop  offset="1" style="stop-color:#B1DCF6"/>
	</linearGradient>
	<path class="st0" d="M83.1,13.9c85.1-34.4,174.2,2.2,167.1,30.8c-0.5,2.1-1.6,4.1-3.2,6.2c29.1,10.7,47,26,44.4,40.5
		c-1.3,7.2-7.6,14.4-17.3,21.5c20.9,10.6,32.7,24.1,30.7,38c-4,27.3-78.1,53.2-138,74.2l0,0c-12.9,4.5-25.1,8.8-35.8,12.8
		c43.4,3.3,100-2.4,152.8-29c4.2-2.1,7.1-3,8.1-1.4c2.1,3.4-15.3,17.3-42.2,29.4c-51.8,23.2-109.2,25.5-154.5,17.4
		c-2.4,1.8-3.8,3.4-4.2,5c-3.7,14.3,72.7,34.6,148.3,5.7c6.5-2.5,8.1-2.8,9.2-1.6c2.6,2.9-11.2,12-26.6,18.2
		c-85.1,34.4-174.2-2.2-167.1-30.8c0.5-2.1,1.6-4.2,3.2-6.3c-29.2-10.7-47-26-44.4-40.5c1.3-7.2,7.5-14.4,17.2-21.5
		c-20.8-10.6-32.7-24.1-30.6-38c4-27.3,78.1-53.2,138-74.2c13-4.5,25.3-8.9,36.1-12.9c-43.4-3.3-100.2,2.4-153.2,29
		c-4.2,2.1-7.1,3-8.1,1.4C11,84.4,28.4,70.5,55.3,58.5C107.1,35.3,164.6,33,209.9,41.1c2.3-1.7,3.7-3.3,4.1-4.9
		c3.7-14.3-72.7-34.6-148.3-5.7c-6.5,2.5-8.1,2.8-9.2,1.6C53.9,29.2,67.7,20.1,83.1,13.9z M225.6,67.1
		c-14.4,7.9-33.8,15.8-54.7,23.5c21.3,0.6,41.4,3.1,59.2,7.1c10-5.2,16.3-10,17.3-14.4C248.6,78.3,240.3,72.2,225.6,67.1z
		 M109.8,112.3c-40.6,14.4-74.7,27.9-77,39.7c-1.1,5.7,6.5,11.8,20,17.3c27.2-14.2,64.7-27.8,99.6-40.5c0.7-0.3,1.5-0.5,2.2-0.8
		c14.5-5.3,28.3-10.3,40.6-15.1C169.4,109.7,139.7,109,109.8,112.3z M74.9,197.8c-10,5.2-16.3,10-17.3,14.3
		c-1.2,5.1,7.1,11.2,22,16.2c14.4-7.9,33.7-15.7,54.5-23.4C112.8,204.3,92.7,201.8,74.9,197.8z M195.2,183.2
		c-30,3.4-59.8,2.6-85.5-0.6c12.5-4.8,26.4-9.9,40.8-15.2c36-13.1,74.1-27,101.7-41.3c13.6,5.5,21.3,11.7,20.2,17.4
		C269.9,155.3,235.8,168.8,195.2,183.2z"/>
	
		<linearGradient id="SVGID_00000104680248021776443590000010199066311591591061_" gradientUnits="userSpaceOnUse" x1="102.7254" y1="258.5559" x2="182.0025" y2="32.1082" gradientTransform="matrix(1 0 0 -1 0 298.0534)">
		<stop  offset="7.072730e-02" style="stop-color:#4D76FE"/>
		<stop  offset="0.1623" style="stop-color:#9EB4FF"/>
	</linearGradient>
	<path style="fill:url(#SVGID_00000104680248021776443590000010199066311591591061_);" d="M55.3,58.5
		C107.1,35.3,164.6,33,209.9,41.1c-6.3,4.8-19.1,10.3-35.5,16.4c-43.4-3.3-100.2,2.4-153.2,29c-4.2,2.1-7.1,3-8.1,1.4
		C11,84.4,28.4,70.5,55.3,58.5z"/>
	
		<linearGradient id="SVGID_00000116228645342434788420000005115447304860314538_" gradientUnits="userSpaceOnUse" x1="113.3192" y1="262.2646" x2="192.5962" y2="35.817" gradientTransform="matrix(1 0 0 -1 0 298.0534)">
		<stop  offset="0.2792" style="stop-color:#9DB3FF"/>
		<stop  offset="0.3815" style="stop-color:#5078FF"/>
		<stop  offset="0.6237" style="stop-color:#328AFA"/>
		<stop  offset="0.722" style="stop-color:#67BCFF"/>
	</linearGradient>
	<path style="fill:url(#SVGID_00000116228645342434788420000005115447304860314538_);" d="M247,50.9c-4.1,5.4-11.6,10.8-21.4,16.2
		c14.8,5.1,23,11.2,21.8,16.3c-2.7,11.7-44,26.8-92.8,44.6l-2.2,0.8c-62.7,22.8-133.9,48.8-138.7,75.3
		c-2.6,14.4,15.3,29.7,44.4,40.5c4.2-5.4,11.7-10.8,21.5-16.2c-14.8-5.1-23.1-11.2-22-16.2c2.7-11.7,45-27.1,92.8-44.6
		c64.6-23.5,136.2-49.6,140.9-76.1C294,76.9,276.1,61.6,247,50.9z"/>
	
		<linearGradient id="SVGID_00000177473772349936494020000009160196226800516497_" gradientUnits="userSpaceOnUse" x1="123.9513" y1="265.9868" x2="203.2283" y2="39.5391" gradientTransform="matrix(1 0 0 -1 0 298.0534)">
		<stop  offset="0.5947" style="stop-color:#61B8FF"/>
		<stop  offset="0.7973" style="stop-color:#81CFFF"/>
		<stop  offset="0.8238" style="stop-color:#7BCBFE"/>
		<stop  offset="0.8605" style="stop-color:#69C0FD"/>
		<stop  offset="0.9032" style="stop-color:#4BAEFA"/>
		<stop  offset="0.95" style="stop-color:#2396F7"/>
		<stop  offset="0.951" style="stop-color:#2295F7"/>
	</linearGradient>
	<path style="fill:url(#SVGID_00000177473772349936494020000009160196226800516497_);" d="M131,237.9c-16.5,6.2-29.4,11.7-35.7,16.4
		c45.3,8.1,102.7,5.8,154.5-17.4c26.9-12,44.3-26,42.2-29.4c-1-1.6-3.9-0.8-8.1,1.4C231,235.6,174.4,241.2,131,237.9z"/>
	
		<linearGradient id="SVGID_00000082353691851962499260000012796698706726180520_" gradientUnits="userSpaceOnUse" x1="97.5502" y1="300.2345" x2="157.7147" y2="89.2912" gradientTransform="matrix(1 0 0 -1 0 298.0534)">
		<stop  offset="0.578" style="stop-color:#4E76FF"/>
		<stop  offset="0.7497" style="stop-color:#86B0FF"/>
		<stop  offset="0.8756" style="stop-color:#BCD9FF"/>
		<stop  offset="1" style="stop-color:#D8E7FF"/>
	</linearGradient>
	<path style="fill:url(#SVGID_00000082353691851962499260000012796698706726180520_);" d="M250.2,44.7
		c7.1-28.5-81.9-65.1-167.1-30.8c-15.4,6.2-29.2,15.3-26.6,18.2c1.1,1.2,2.7,0.8,9.2-1.6c75.6-28.9,152-8.6,148.3,5.7
		c-2.2,8.4-35.8,20.2-75.7,34.2c-59.9,21-134.1,46.9-138,74.2c-2,13.9,9.8,27.4,30.6,38c6.1-4.5,13.5-8.9,21.9-13.2
		c-13.6-5.5-21.1-11.6-20-17.3c2.7-13.8,48.7-29.8,97.7-46.9l0,0C185.8,85.7,245.1,65,250.2,44.7z"/>
	
		<linearGradient id="SVGID_00000050630651982738250800000007189566960618841738_" gradientUnits="userSpaceOnUse" x1="81.4143" y1="295.6322" x2="141.5788" y2="84.689" gradientTransform="matrix(1 0 0 -1 0 298.0534)">
		<stop  offset="0.7497" style="stop-color:#BCD9FE"/>
		<stop  offset="0.8756" style="stop-color:#BDD8FF"/>
		<stop  offset="1" style="stop-color:#D5E6FF"/>
	</linearGradient>
	<path style="fill:url(#SVGID_00000050630651982738250800000007189566960618841738_);" d="M134.1,204.9c-21.3-0.6-41.4-3.1-59.2-7.1
		c9-4.7,21-9.8,34.8-15.1c25.8,3.2,55.6,4,85.5,0.6c-6.7,2.4-13.7,4.8-20.6,7.2C161,195.2,147.3,200,134.1,204.9z"/>
	
		<linearGradient id="SVGID_00000059285866241582391730000007444481491753297794_" gradientUnits="userSpaceOnUse" x1="207.4236" y1="0.3373" x2="147.2596" y2="211.2806" gradientTransform="matrix(1 0 0 -1 0 298.0534)">
		<stop  offset="0.2199" style="stop-color:#04A7E4"/>
		<stop  offset="0.5801" style="stop-color:#487FFE"/>
		<stop  offset="0.715" style="stop-color:#95ADFF"/>
	</linearGradient>
	<path style="fill:url(#SVGID_00000059285866241582391730000007444481491753297794_);" d="M54.8,250.9
		c-7.1,28.5,81.9,65.1,167.1,30.8c15.4-6.2,29.2-15.3,26.6-18.2c-1.1-1.2-2.7-0.8-9.2,1.6c-75.6,28.9-152,8.6-148.3-5.7
		c2.2-8.4,35.8-20.2,75.7-34.2c59.9-21,134.1-46.9,138-74.2c2-13.9-9.9-27.4-30.7-38.1c-6.1,4.5-13.5,8.9-21.9,13.2
		c13.6,5.5,21.2,11.7,20.1,17.4c-2.7,13.8-48.7,29.8-97.7,46.9l0,0C119.2,209.8,59.9,230.5,54.8,250.9z"/>
	
		<linearGradient id="SVGID_00000031197173484114727830000011223072344125437315_" gradientUnits="userSpaceOnUse" x1="223.563" y1="4.9405" x2="163.399" y2="215.8838" gradientTransform="matrix(1 0 0 -1 0 298.0534)">
		<stop  offset="0.6812" style="stop-color:#94ACFF"/>
		<stop  offset="0.8661" style="stop-color:#BECDFF"/>
		<stop  offset="0.9988" style="stop-color:#D4DEFF"/>
	</linearGradient>
	<path style="fill:url(#SVGID_00000031197173484114727830000011223072344125437315_);" d="M170.9,90.7c21.3,0.6,41.4,3.1,59.2,7.1
		c-9,4.7-21,9.8-34.8,15.1c-25.8-3.2-55.6-4-85.5-0.6c6.7-2.4,13.7-4.8,20.6-7.2C143.9,100.3,157.7,95.5,170.9,90.7z"/>
	
		<linearGradient id="SVGID_00000094610869315106609270000004715776946005583807_" gradientUnits="userSpaceOnUse" x1="152.5032" y1="261.226" x2="152.5032" y2="39.4443" gradientTransform="matrix(1 0 0 -1 0 298.0534)">
		<stop  offset="0.1653" style="stop-color:#000000;stop-opacity:0"/>
		<stop  offset="0.5197" style="stop-color:#000000;stop-opacity:8.000000e-02"/>
		<stop  offset="0.8013" style="stop-color:#000000;stop-opacity:0"/>
	</linearGradient>
	<path style="fill-rule:evenodd;clip-rule:evenodd;fill:url(#SVGID_00000094610869315106609270000004715776946005583807_);" d="
		M154.6,128l0.6,1.7l-2.2,0.8c-31.4,11.4-64.7,23.6-90.9,36.2C49,173,37.8,179.4,29.6,185.8c-8.2,6.4-13.1,12.7-14.2,18.6
		c-1.1,6.3,2.1,13.2,9.7,20c7.3,6.6,18.4,12.8,32.3,18c3.9-4.7,10.1-9.2,17.8-13.7c-5.8-2.2-10.4-4.6-13.7-7c-2-1.5-3.6-3-4.6-4.7
		c-1-1.7-1.5-3.5-1.1-5.3c0.4-1.9,1.6-3.7,3.3-5.4c1.6-1.7,3.8-3.4,6.4-5.2c5.2-3.4,12.4-7.1,20.8-10.8
		c16.9-7.5,39.5-15.8,63.4-24.5l0.1,0c32.3-11.8,66.3-24.2,92.7-36.9c13.2-6.4,24.5-12.8,32.8-19.2c8.3-6.5,13.2-12.7,14.3-18.6
		c1.1-6.3-2.1-13.2-9.7-20c-7.3-6.6-18.4-12.8-32.3-18c-3.9,4.7-10.1,9.2-17.7,13.7c5.7,2.2,10.4,4.6,13.6,7c2,1.5,3.6,3,4.6,4.7
		c1,1.7,1.5,3.5,1.1,5.3c-0.4,1.9-1.6,3.7-3.2,5.4c-1.6,1.7-3.8,3.4-6.3,5.1c-5.1,3.4-12.2,7-20.6,10.8
		c-16.8,7.5-39.4,15.7-63.8,24.6l-0.1,0L154.6,128z M227.9,67.9c13.3,4.9,20.6,10.6,19.5,15.5c-2.7,11.7-44,26.8-92.8,44.6l-2.2,0.8
		c-62.7,22.8-133.9,48.8-138.7,75.3c-2.6,14.4,15.3,29.7,44.4,40.5c3.8-5,10.6-10,19.4-15c0.7-0.4,1.4-0.8,2.1-1.2
		c-0.8-0.3-1.5-0.5-2.3-0.8c-13.4-4.9-20.8-10.6-19.7-15.4c2.7-11.7,45-27.1,92.8-44.6c64.6-23.5,136.2-49.6,140.9-76.1
		c2.6-14.5-15.3-29.8-44.4-40.5c-3.8,5-10.5,10-19.3,15c-0.7,0.4-1.4,0.8-2.1,1.2C226.4,67.4,227.1,67.7,227.9,67.9z M205.1,42.1
		C160.8,35,105.7,37.9,56,60.1c-13.3,6-24.3,12.4-31.6,17.7c-3.7,2.7-6.4,5-8,6.9c-0.8,0.9-1.3,1.6-1.5,2.1c0,0,0,0,0,0
		c0.2,0,0.4,0,0.7-0.1c1.1-0.2,2.7-0.9,4.8-1.9c53.2-26.7,110.1-32.5,153.7-29.2C187.5,50.6,198.3,46.1,205.1,42.1z M207.4,40.6
		c-44.9-7.6-101.2-4.9-152.1,17.9c-26.9,12-44.3,26-42.2,29.4c1,1.6,3.9,0.8,8.1-1.4c53-26.6,109.7-32.3,153.2-29
		c14.7-5.5,26.6-10.5,33.4-14.9c0.8-0.5,1.5-1,2.1-1.5C209,40.9,208.2,40.8,207.4,40.6z M14.7,87.2C14.7,87.2,14.7,87.2,14.7,87.2
		C14.7,87.2,14.7,87.2,14.7,87.2z M97.4,252.9c-0.8,0.5-1.5,1-2.1,1.5c0.8,0.1,1.7,0.3,2.5,0.4c44.9,7.5,101.1,4.9,152-17.8
		c26.9-12,44.3-26,42.2-29.4c-1-1.6-3.9-0.8-8.1,1.4c-52.9,26.6-109.5,32.3-152.9,29C116.2,243.5,104.2,248.5,97.4,252.9z
		 M100.1,253.4c44.3,7.1,99.2,4.2,148.9-18c13.3-6,24.3-12.4,31.6-17.7c3.7-2.7,6.4-5,8-6.9c0.8-0.9,1.3-1.6,1.5-2.1c0,0,0,0,0,0
		c-0.2,0-0.4,0-0.7,0.1c-1.1,0.2-2.7,0.9-4.8,1.9c-53.1,26.7-109.8,32.4-153.4,29.2C117.8,244.8,106.9,249.4,100.1,253.4z
		 M290.3,208.2C290.3,208.2,290.3,208.2,290.3,208.2C290.3,208.2,290.3,208.2,290.3,208.2z"/>
	
		<linearGradient id="SVGID_00000171693747626668979210000008455862262285728170_" gradientUnits="userSpaceOnUse" x1="126.4945" y1="304.5209" x2="124.0135" y2="97.2851" gradientTransform="matrix(1 0 0 -1 0 298.0534)">
		<stop  offset="0.1704" style="stop-color:#000000;stop-opacity:0"/>
		<stop  offset="0.4584" style="stop-color:#000000;stop-opacity:0.1"/>
		<stop  offset="0.7987" style="stop-color:#000000;stop-opacity:0"/>
	</linearGradient>
	<path style="fill-rule:evenodd;clip-rule:evenodd;fill:url(#SVGID_00000171693747626668979210000008455862262285728170_);" d="
		M130.4,105.1C185.8,85.7,245.1,65,250.2,44.7c7.1-28.5-81.9-65.1-167.1-30.8c-15.4,6.2-29.2,15.3-26.6,18.2
		c1.1,1.2,2.7,0.8,9.2-1.6c75.6-28.9,152-8.6,148.3,5.7c-2.2,8.4-35.8,20.2-75.7,34.2c-59.9,21-134.1,46.9-138,74.2
		c-2,13.9,9.8,27.4,30.6,38c5.6-4.1,12.3-8.1,19.8-12.1c0.7-0.4,1.4-0.7,2.1-1.1c-0.7-0.3-1.5-0.6-2.2-0.9
		c-12.2-5.2-18.9-11.1-17.8-16.4C35.5,138.2,81.4,122.2,130.4,105.1z M48.5,169.5c-5.2-2.3-9.5-4.8-12.5-7.4
		c-3.6-3.1-5.9-6.6-5.1-10.5c0.4-2.2,1.7-4.2,3.4-6.1c1.7-1.9,4.1-3.9,6.9-5.8c5.6-3.8,13.2-7.7,22.3-11.6
		c18-7.9,41.8-16.2,66.2-24.7l0.1,0v0c0,0,0,0,0,0c27.7-9.7,56.3-19.7,78.6-29.8c11.2-5.1,20.6-10.1,27.6-15.1
		c7.1-5.1,11.3-9.8,12.4-14.3c1.5-6.1-2-13-10.5-19.8c-8.4-6.7-21.3-12.8-37.1-17c-31.7-8.3-74.8-8.9-117,8.1
		c-7.6,3.1-14.8,6.8-19.7,10.2c-2.5,1.7-4.3,3.2-5.3,4.3c-0.3,0.4-0.5,0.7-0.6,0.9c0.1,0,0.3,0,0.6-0.1c1.2-0.2,3-0.9,6.3-2.1
		c38.1-14.6,76.4-16.7,104.7-13.4c14.2,1.6,25.9,4.7,33.9,8.2c4,1.8,7.2,3.7,9.3,5.8c2.1,2.1,3.4,4.6,2.7,7.3
		c-0.4,1.5-1.4,2.9-2.7,4.2c-1.3,1.3-3.1,2.6-5.2,3.9c-4.2,2.6-10,5.3-16.8,8.2c-13.7,5.8-32.1,12.2-52.1,19.2l-0.1,0
		c-30,10.5-63.4,22.2-89.8,34.7c-13.2,6.2-24.6,12.6-32.9,19.1c-8.4,6.5-13.3,12.9-14.1,19c-0.9,6.3,1.3,12.7,6.3,18.8
		c4.9,6,12.5,11.7,22.3,16.8C35.8,176.8,41.9,173.1,48.5,169.5z"/>
	
		<linearGradient id="SVGID_00000086680618427643234330000003908837469570216868_" gradientUnits="userSpaceOnUse" x1="179.6917" y1="2.5191" x2="179.6917" y2="207.3926" gradientTransform="matrix(1 0 0 -1 0 298.0534)">
		<stop  offset="0.1127" style="stop-color:#000000;stop-opacity:0"/>
		<stop  offset="0.5" style="stop-color:#000000;stop-opacity:0.1"/>
		<stop  offset="0.7184" style="stop-color:#000000;stop-opacity:0"/>
	</linearGradient>
	<path style="fill-rule:evenodd;clip-rule:evenodd;fill:url(#SVGID_00000086680618427643234330000003908837469570216868_);" d="
		M174.6,190.4c-55.4,19.4-114.7,40.1-119.8,60.4c-7.1,28.5,81.9,65.1,167.1,30.8c15.4-6.2,29.2-15.3,26.6-18.2
		c-1.1-1.2-2.7-0.8-9.2,1.6c-75.6,28.9-152,8.6-148.3-5.7c2.2-8.4,35.8-20.2,75.7-34.2c59.9-21,134.1-46.9,138-74.2
		c2-13.9-9.9-27.4-30.7-38.1c-5.6,4.1-12.3,8.1-19.8,12.1c-0.7,0.4-1.4,0.7-2.1,1.1c0.7,0.3,1.5,0.6,2.2,0.9
		c12.2,5.3,19,11.1,17.9,16.5C269.5,157.3,223.6,173.3,174.6,190.4z M256.4,125.9c5.2,2.3,9.5,4.8,12.5,7.4
		c3.6,3.1,5.9,6.7,5.1,10.5c-0.4,2.2-1.7,4.2-3.4,6.1c-1.7,1.9-4.1,3.9-6.9,5.8c-5.6,3.8-13.2,7.7-22.3,11.6
		c-18,7.9-41.8,16.2-66.2,24.7l-0.1,0v0c0,0,0,0,0,0c-27.7,9.7-56.3,19.7-78.6,29.8C85.4,227,75.9,232,68.9,237
		c-7.1,5.1-11.3,9.8-12.4,14.3c-1.5,6.1,2,13,10.5,19.8c8.4,6.7,21.3,12.8,37.1,17c31.7,8.3,74.8,8.9,117-8.1
		c7.6-3.1,14.8-6.8,19.7-10.2c2.5-1.7,4.3-3.2,5.3-4.3c0.3-0.4,0.5-0.7,0.6-0.9c-0.1,0-0.3,0-0.6,0.1c-1.2,0.2-3,0.9-6.3,2.1
		c-38.1,14.6-76.4,16.7-104.7,13.4c-14.2-1.6-25.9-4.7-33.9-8.2c-4-1.8-7.2-3.7-9.3-5.8c-2.1-2.1-3.4-4.6-2.7-7.3
		c0.4-1.5,1.4-2.9,2.7-4.2c1.3-1.3,3.1-2.6,5.2-3.9c4.2-2.6,10-5.3,16.8-8.2c13.7-5.8,32.1-12.2,52.1-19.2l0.1,0
		c30-10.5,63.4-22.2,89.8-34.7c13.2-6.2,24.6-12.6,32.9-19.1c8.4-6.5,13.2-12.9,14.1-19c0.9-6.3-1.3-12.7-6.4-18.9
		c-4.9-6-12.6-11.7-22.4-16.8C269.1,118.7,263,122.3,256.4,125.9z"/>
</g>
</svg>
