<?xml version="1.0" standalone="no"?>
<!DOCTYPE svg PUBLIC "-//W3C//DTD SVG 20010904//EN"
 "http://www.w3.org/TR/2001/REC-SVG-20010904/DTD/svg10.dtd">
<svg version="1.0" xmlns="http://www.w3.org/2000/svg"
 width="610.000000pt" height="610.000000pt" viewBox="0 0 610.000000 610.000000"
 preserveAspectRatio="xMidYMid meet">
<metadata>
Created by potrace 1.14, written by Peter Selinger 2001-2017
</metadata>
<g transform="translate(0.000000,610.000000) scale(0.100000,-0.100000)"
fill="#000000" stroke="none">
<path d="M2849 5996 c-2 -2 -40 -6 -84 -10 -44 -3 -91 -8 -105 -10 -14 -3 -47
-7 -75 -11 -100 -12 -119 -15 -195 -30 -14 -3 -38 -8 -55 -11 -16 -3 -75 -16
-130 -30 -55 -13 -110 -27 -122 -29 -12 -3 -34 -10 -48 -15 -14 -5 -25 -7 -25
-4 0 2 -9 0 -21 -6 -11 -6 -30 -13 -41 -15 -11 -3 -41 -12 -67 -21 -25 -9 -77
-28 -116 -42 -262 -94 -538 -247 -618 -342 -31 -36 -32 -43 -12 -63 18 -18 58
-14 129 15 28 11 58 22 66 24 8 2 85 27 171 56 86 29 163 55 170 56 8 2 21 6
29 8 8 2 51 13 95 25 90 23 348 77 410 85 22 2 51 6 65 9 74 11 110 16 158 20
28 3 75 7 103 10 243 25 630 21 866 -9 90 -12 193 -28 233 -37 25 -5 56 -11
70 -13 14 -2 32 -6 40 -10 8 -3 24 -7 35 -9 76 -13 231 -67 321 -111 178 -87
226 -176 141 -261 -37 -37 -35 -37 -127 -20 -25 4 -64 10 -155 20 -27 4 -61 8
-75 10 -14 2 -56 7 -95 11 -38 3 -83 8 -100 10 -209 21 -751 21 -925 -1 -14
-1 -59 -6 -100 -10 -41 -4 -88 -9 -105 -11 -16 -2 -52 -6 -80 -10 -27 -3 -87
-12 -133 -20 -45 -8 -99 -17 -120 -20 -20 -3 -45 -7 -54 -10 -10 -3 -29 -7
-43 -10 -58 -10 -75 -13 -176 -38 -315 -77 -606 -177 -884 -304 -125 -58 -330
-164 -333 -173 -2 -5 -7 -9 -12 -9 -23 0 -261 -156 -331 -217 -98 -84 -129
-123 -129 -160 0 -44 56 -34 198 33 184 88 255 119 411 181 91 36 182 70 201
75 19 5 44 13 55 18 22 9 111 38 136 44 8 2 40 12 70 21 81 24 270 73 351 91
40 8 82 18 93 20 26 6 113 23 145 29 14 2 66 11 115 20 50 9 108 18 130 21 22
2 58 7 80 10 22 3 56 7 75 9 19 2 67 6 105 10 39 4 84 9 100 11 167 16 672 23
835 11 36 -3 76 -6 90 -6 17 -2 4 -10 -45 -27 -38 -14 -79 -30 -90 -34 -11 -5
-60 -23 -110 -40 -49 -17 -106 -37 -125 -45 -33 -13 -180 -65 -280 -98 -25 -9
-103 -36 -175 -62 -71 -25 -164 -57 -205 -71 -41 -14 -89 -32 -107 -40 -17 -8
-35 -14 -40 -14 -4 0 -54 -18 -111 -39 -56 -22 -105 -39 -108 -40 -6 0 -192
-69 -232 -87 -18 -8 -37 -14 -42 -14 -6 0 -29 -8 -53 -19 -23 -10 -69 -29
-102 -42 -110 -41 -420 -170 -457 -189 -20 -10 -39 -16 -42 -13 -3 4 -6 1 -6
-5 0 -7 -7 -12 -15 -12 -9 0 -30 -8 -48 -17 -18 -9 -34 -17 -37 -18 -10 -1
-327 -160 -375 -188 -141 -83 -170 -101 -175 -107 -3 -4 -12 -9 -20 -12 -13
-5 -159 -110 -197 -142 -46 -38 -139 -139 -169 -182 -19 -27 -46 -77 -59 -110
-21 -50 -24 -72 -21 -149 4 -104 25 -170 86 -264 46 -70 148 -176 235 -242 69
-52 240 -159 255 -159 5 0 10 -5 10 -11 0 -5 4 -7 10 -4 6 3 10 2 10 -2 0 -5
-23 -27 -52 -48 -67 -52 -170 -155 -207 -208 -86 -126 -104 -234 -59 -355 70
-189 275 -365 613 -526 50 -23 124 -55 165 -71 41 -16 77 -30 78 -31 2 -1 -10
-31 -27 -66 -76 -161 -14 -324 190 -493 134 -111 380 -235 614 -309 94 -29
264 -75 309 -82 17 -2 40 -7 51 -9 11 -2 34 -7 50 -9 17 -3 41 -8 55 -11 14
-2 45 -7 70 -10 25 -3 63 -8 85 -11 22 -3 60 -8 85 -11 66 -7 632 -13 643 -6
5 3 34 7 65 9 83 4 174 13 192 18 8 3 40 8 70 11 30 4 57 8 60 10 3 2 24 6 47
10 23 3 91 17 150 31 59 14 117 27 128 29 36 8 157 46 275 86 63 22 120 41
125 42 6 1 12 4 15 7 3 3 23 11 45 19 59 20 238 109 334 166 109 65 205 154
195 181 -15 39 -39 39 -153 -3 -76 -28 -389 -133 -411 -138 -8 -2 -69 -17
-135 -33 -165 -42 -324 -73 -444 -87 -30 -4 -62 -8 -72 -10 -10 -2 -44 -6 -76
-10 -32 -3 -80 -8 -108 -11 -118 -13 -533 -19 -660 -10 -66 5 -171 15 -217 21
-105 13 -129 17 -208 31 -206 37 -460 118 -514 163 -10 9 -21 15 -25 15 -14
-3 -93 62 -111 92 -31 49 -26 85 19 133 21 22 43 41 48 41 8 0 157 -21 243
-35 30 -5 130 -16 185 -20 22 -2 83 -8 135 -12 194 -16 801 -9 965 12 19 3 57
7 83 10 67 7 117 14 192 26 36 6 79 12 95 15 17 2 53 8 80 14 28 5 66 12 85
15 69 11 357 85 470 120 63 20 122 38 130 40 39 11 176 61 180 65 3 3 23 11
45 19 22 7 54 19 70 26 17 7 50 21 75 32 85 34 335 160 435 218 95 55 234 143
245 155 3 3 30 24 60 46 71 53 137 119 155 154 13 25 12 29 -5 45 -13 12 -27
15 -49 10 -17 -4 -34 -6 -37 -5 -4 1 -10 -2 -13 -7 -3 -5 -24 -17 -46 -28 -22
-10 -91 -42 -153 -72 -62 -29 -115 -53 -117 -53 -3 0 -30 -12 -62 -26 -32 -14
-67 -29 -78 -34 -56 -23 -380 -139 -407 -144 -7 -2 -20 -6 -28 -9 -59 -25
-471 -126 -620 -153 -14 -2 -34 -6 -46 -9 -12 -3 -39 -7 -60 -10 -21 -3 -64
-10 -94 -15 -92 -15 -203 -30 -265 -35 -22 -2 -40 -4 -40 -5 0 -1 -23 -3 -51
-5 -28 -2 -76 -7 -105 -10 -114 -11 -311 -18 -489 -18 -191 1 -419 9 -427 16
-3 3 105 48 127 53 3 0 12 3 20 7 8 3 92 33 185 66 369 129 493 173 560 198
39 14 75 26 80 27 6 2 17 6 25 9 8 3 80 29 160 57 80 28 159 56 175 63 17 6
32 12 35 13 3 0 16 5 30 11 14 5 54 20 90 32 36 13 79 29 95 36 17 6 44 17 60
23 447 165 1018 419 1204 536 22 14 43 26 47 26 7 0 230 148 247 164 7 6 26
22 42 34 115 89 230 235 258 328 22 76 19 179 -8 260 -23 68 -90 184 -106 184
-5 0 -9 6 -9 13 0 18 -116 126 -209 196 -78 58 -234 151 -252 151 -18 0 -9 18
17 35 36 24 77 59 145 129 228 229 227 449 -2 675 -144 141 -373 279 -634 381
-33 13 -64 26 -69 31 -4 4 3 27 17 51 120 208 -45 459 -434 661 -185 96 -483
198 -674 232 -29 5 -53 9 -105 20 -14 3 -45 8 -70 11 -25 3 -52 7 -60 9 -8 2
-46 7 -85 11 -38 3 -79 9 -90 11 -22 6 -600 14 -606 9z m1856 -1421 c61 -29
120 -62 132 -74 12 -11 25 -21 28 -21 8 0 38 -31 61 -65 60 -84 -12 -184 -224
-313 -96 -58 -89 -57 -237 -28 -44 9 -91 18 -105 21 -26 5 -82 14 -127 19 -15
2 -44 7 -63 10 -76 13 -98 16 -165 22 -38 3 -79 8 -90 10 -11 2 -54 6 -95 10
-41 3 -102 7 -135 10 -33 2 -101 5 -152 7 -70 1 -89 5 -81 14 5 7 13 12 16 11
4 -1 16 2 27 6 11 5 27 10 35 14 8 3 17 6 20 7 3 1 14 5 25 10 11 4 83 32 160
62 77 29 154 60 170 67 17 8 48 21 70 31 22 9 48 21 57 26 10 5 25 9 33 9 8 0
15 4 15 8 0 4 10 8 21 9 12 1 29 9 38 17 10 9 24 16 32 16 8 1 88 38 179 84
l165 83 40 -15 c22 -8 90 -38 150 -67z m-1290 -790 c50 -4 110 -8 135 -9 90
-6 215 -18 221 -21 3 -2 31 -5 62 -6 32 -1 54 -5 50 -9 -16 -14 -286 -116
-730 -276 -51 -18 -103 -39 -115 -45 -13 -7 -24 -12 -25 -11 -5 3 -87 -25
-148 -49 -16 -7 -34 -13 -40 -14 -16 -4 -658 -245 -680 -255 -11 -5 -63 -26
-115 -45 -52 -19 -104 -40 -115 -45 -11 -5 -69 -29 -130 -54 -145 -59 -178
-73 -253 -107 -35 -16 -65 -29 -67 -29 -2 0 -38 -17 -82 -37 -43 -20 -79 -36
-80 -36 -1 1 -55 -25 -119 -58 -64 -32 -123 -59 -131 -59 -21 0 -170 73 -238
117 -53 35 -93 71 -132 116 -20 25 -32 85 -23 118 12 42 65 108 119 150 24 19
49 39 55 45 6 5 18 13 26 17 8 4 29 15 45 26 109 67 244 134 426 211 79 33
153 65 164 70 49 23 376 145 595 222 123 44 125 44 240 54 41 3 86 7 100 10
14 2 90 7 170 10 80 3 146 7 147 8 5 5 587 -3 668 -9z m1869 -430 c226 -152
213 -278 -49 -450 -95 -62 -235 -138 -235 -128 0 5 -4 3 -8 -3 -4 -6 -61 -35
-127 -64 -66 -29 -133 -58 -150 -65 -95 -42 -361 -145 -555 -215 -80 -28 -167
-60 -195 -71 -64 -23 -108 -31 -265 -43 -320 -26 -969 -26 -1180 -1 -25 3 -74
8 -110 11 -36 3 -81 7 -100 9 -19 2 -48 4 -64 4 -20 1 -27 4 -20 11 9 9 334
135 469 182 33 11 71 25 85 31 14 6 30 11 35 13 6 1 39 13 75 27 36 13 207 76
380 140 173 64 340 125 370 137 30 12 60 23 65 24 6 2 24 8 40 15 17 6 44 16
60 22 17 6 39 15 50 19 11 5 92 37 180 71 88 34 174 67 190 74 17 7 113 48
215 90 203 86 290 125 483 219 l129 63 90 -44 c50 -24 114 -59 142 -78z
m-3704 -1330 c14 -2 36 -7 50 -10 14 -2 39 -7 55 -10 17 -3 41 -7 55 -10 39
-8 103 -18 130 -21 14 -1 25 -3 25 -4 0 -1 11 -3 25 -4 77 -9 148 -18 170 -22
25 -4 81 -10 175 -19 57 -5 229 -16 323 -19 34 -2 64 -5 67 -7 2 -3 -55 -27
-128 -53 -73 -27 -136 -52 -142 -56 -5 -4 -28 -13 -50 -20 -22 -7 -60 -21 -85
-32 -25 -10 -54 -23 -65 -28 -11 -4 -37 -15 -57 -24 -21 -9 -53 -22 -70 -30
-153 -64 -433 -198 -451 -216 -11 -10 -120 29 -232 85 -143 71 -225 150 -225
219 0 24 48 97 84 128 31 27 175 123 221 147 38 21 51 21 125 6z"/>
</g>
</svg>
